<svg width="72" height="20" viewBox="0 0 72 20" fill="none" xmlns="http://www.w3.org/2000/svg">
<g id="adplist">
<g id="face-grp">
<path id="face" d="M20.2571 10C20.2571 15.5228 15.7799 20 10.2571 20C4.73423 20 0.25708 15.5228 0.25708 10C0.25708 4.47715 4.73423 0 10.2571 0C15.7799 0 20.2571 4.47715 20.2571 10ZM1.86362 10C1.86362 14.6356 5.6215 18.3935 10.2571 18.3935C14.8927 18.3935 18.6505 14.6356 18.6505 10C18.6505 5.36442 14.8927 1.60654 10.2571 1.60654C5.6215 1.60654 1.86362 5.36442 1.86362 10Z" fill="#E1EAEA"/>
<path id="smile" d="M16.1497 10.8045C16.4924 10.8615 16.7302 11.1816 16.6559 11.5209C16.3355 12.9842 15.6055 14.3059 14.5624 15.2941C13.3751 16.4187 11.861 17.0366 10.2953 17.0355C8.72957 17.0343 7.21622 16.4141 6.03037 15.2876C4.98846 14.2979 4.26015 12.9751 3.94155 11.5113C3.86766 11.1719 4.10602 10.8521 4.4488 10.7955C4.80564 10.7367 5.13741 10.9854 5.22324 11.3367C5.49571 12.452 6.06614 13.4576 6.86701 14.2183C7.82048 15.124 9.03727 15.6227 10.2962 15.6237C11.5551 15.6246 12.7725 15.1278 13.7271 14.2235C14.5288 13.464 15.1005 12.4595 15.3744 11.3447C15.4607 10.9934 15.7929 10.7451 16.1497 10.8045Z" fill="#E1EAEA"/>
<path id="eye" d="M6.83061 9.20556C8.31266 8.65525 10.7697 4.30799 6.72579 5.57868C2.6034 4.30234 5.34856 8.65525 6.83061 9.20556Z" stroke="#E1EAEA" stroke-width="1.5"/>
<path id="eye_2" d="M13.7947 9.29834C15.2768 8.74802 17.7338 4.40077 13.6899 5.67146C9.56751 4.39512 12.3127 8.74802 13.7947 9.29834Z" stroke="#E1EAEA" stroke-width="1.5"/>
</g>
<g id="text">
<g id="ADPlist">
<path d="M24.4075 15.3303L28.0678 4.71965H30.5744L34.2348 15.3303H32.1269L31.372 13.0515H27.2702L26.5011 15.3303H24.4075ZM27.8257 11.3424H30.8166L29.0505 6.05843H29.5917L27.8257 11.3424Z" fill="#E1EAEA"/>
<path d="M35.0265 15.3303V4.71965H38.4874C39.6078 4.71965 40.5811 4.94752 41.4071 5.40328C42.2427 5.84955 42.8883 6.47147 43.3441 7.26904C43.7999 8.05712 44.0277 8.97339 44.0277 10.0178C44.0277 11.0528 43.7999 11.9738 43.3441 12.7809C42.8883 13.5784 42.2427 14.2051 41.4071 14.6609C40.5811 15.1071 39.6078 15.3303 38.4874 15.3303H35.0265ZM36.9635 13.6212H38.5302C39.2518 13.6212 39.8737 13.474 40.3959 13.1797C40.9276 12.8758 41.3407 12.458 41.635 11.9263C41.9293 11.3851 42.0765 10.7489 42.0765 10.0178C42.0765 9.27723 41.9293 8.64106 41.635 8.10935C41.3407 7.57763 40.9276 7.1646 40.3959 6.87025C39.8737 6.57591 39.2518 6.42874 38.5302 6.42874H36.9635V13.6212Z" fill="#E1EAEA"/>
<path d="M45.1801 15.3303V4.71965H49.1395C49.8611 4.71965 50.4973 4.85257 51.048 5.11843C51.6082 5.3748 52.045 5.7546 52.3583 6.25783C52.6716 6.75157 52.8283 7.3545 52.8283 8.06662C52.8283 8.76925 52.6669 9.37218 52.3441 9.87541C52.0307 10.3691 51.5987 10.7489 51.048 11.0148C50.4973 11.2807 49.8611 11.4136 49.1395 11.4136H47.1171V15.3303H45.1801ZM47.1171 9.7045H49.168C49.5193 9.7045 49.8231 9.63803 50.0795 9.5051C50.3359 9.36268 50.5353 9.16803 50.6777 8.92116C50.8201 8.6743 50.8913 8.38945 50.8913 8.06662C50.8913 7.73429 50.8201 7.44945 50.6777 7.21207C50.5353 6.9652 50.3359 6.7753 50.0795 6.64237C49.8231 6.49995 49.5193 6.42874 49.168 6.42874H47.1171V9.7045Z" fill="#E1EAEA"/>
<path d="M53.8696 15.3303V4.54874H55.7354V15.3303H53.8696Z" fill="#E1EAEA"/>
<path d="M57.0689 15.3303V7.58238H58.9347V15.3303H57.0689Z" fill="#E1EAEA"/>
<path d="M63.2164 15.5012C62.3903 15.5012 61.6687 15.3065 61.0515 14.9172C60.4439 14.5184 60.0261 13.982 59.7982 13.3078L61.194 12.6384C61.3934 13.0752 61.6687 13.417 62.02 13.6639C62.3808 13.9108 62.7796 14.0342 63.2164 14.0342C63.5582 14.0342 63.8288 13.9582 64.0282 13.8063C64.2276 13.6544 64.3273 13.455 64.3273 13.2081C64.3273 13.0562 64.2846 12.9328 64.1991 12.8378C64.1232 12.7334 64.014 12.6479 63.8716 12.5815C63.7386 12.5055 63.5914 12.4438 63.43 12.3963L62.1625 12.0403C61.5073 11.8504 61.0088 11.5608 60.667 11.1715C60.3347 10.7822 60.1685 10.3217 60.1685 9.78995C60.1685 9.31521 60.2872 8.90217 60.5246 8.55086C60.7714 8.19005 61.1085 7.90995 61.5358 7.71056C61.9726 7.51116 62.471 7.41147 63.0312 7.41147C63.7624 7.41147 64.408 7.58712 64.9682 7.93844C65.5284 8.28975 65.9272 8.78349 66.1646 9.41965L64.7403 10.089C64.6074 9.73773 64.3843 9.45763 64.0709 9.24874C63.7576 9.03985 63.4063 8.93541 63.017 8.93541C62.7037 8.93541 62.4568 9.00662 62.2764 9.14904C62.096 9.29147 62.0058 9.47662 62.0058 9.7045C62.0058 9.84692 62.0438 9.97036 62.1197 10.0748C62.1957 10.1792 62.3001 10.2647 62.4331 10.3312C62.5755 10.3976 62.7369 10.4593 62.9173 10.5163L64.1564 10.8866C64.7926 11.0765 65.2816 11.3614 65.6234 11.7412C65.9747 12.121 66.1503 12.5862 66.1503 13.1369C66.1503 13.6022 66.0269 14.0152 65.78 14.376C65.5332 14.7273 65.1913 15.0027 64.7546 15.2021C64.3178 15.4015 63.8051 15.5012 63.2164 15.5012Z" fill="#E1EAEA"/>
<path d="M70.7271 15.4157C69.8536 15.4157 69.1747 15.1783 68.6905 14.7036C68.2157 14.2194 67.9784 13.5405 67.9784 12.6669V9.24874H66.6396V7.58238H66.782C67.1618 7.58238 67.4561 7.48268 67.665 7.28328C67.8739 7.08389 67.9784 6.79429 67.9784 6.4145V5.81631H69.8441V7.58238H71.6244V9.24874H69.8441V12.5672C69.8441 12.8236 69.8868 13.042 69.9723 13.2224C70.0672 13.4028 70.2097 13.5405 70.3996 13.6354C70.599 13.7304 70.8506 13.7778 71.1544 13.7778C71.2209 13.7778 71.2968 13.7731 71.3823 13.7636C71.4772 13.7541 71.5674 13.7446 71.6529 13.7351V15.3303C71.52 15.3493 71.368 15.3682 71.1971 15.3872C71.0262 15.4062 70.8696 15.4157 70.7271 15.4157Z" fill="#E1EAEA"/>
<path d="M58.913 5.77056C58.913 6.34702 58.4457 6.81434 57.8693 6.81434C57.2928 6.81434 56.8255 6.34702 56.8255 5.77056C56.8255 5.19409 57.2928 4.72677 57.8693 4.72677C58.4457 4.72677 58.913 5.19409 58.913 5.77056Z" fill="#E1EAEA"/>
</g>
</g>
</g>
</svg>
