<svg width="92" height="20" viewBox="0 0 92 20" fill="none" xmlns="http://www.w3.org/2000/svg">
<g id="Designlab Learning_idgaSWSlRb_2 2" clip-path="url(#clip0_508_809)">
<path id="Vector" d="M12.9672 11.1549V4.69879C12.9672 3.91582 12.3354 3.28395 11.5524 3.28395H11.106C10.323 3.28395 9.69114 2.65207 9.69114 1.86909V1.42266C9.69114 0.639685 9.05924 0.0078125 8.27629 0.0078125H3.68144H0.398438V3.28395V12.5697V15.8459H8.26939C9.05239 15.8459 9.68424 15.214 9.68424 14.4311V13.9846C9.68424 13.2016 9.05239 12.5697 8.26939 12.5697H5.08942C4.30645 12.5697 3.67457 11.9379 3.67457 11.1549V4.69879C3.67457 3.91582 4.30645 3.28395 5.08942 3.28395H8.26939C9.05239 3.28395 9.68424 3.91582 9.68424 4.69879V11.1549C9.68424 11.9379 10.3161 12.5697 11.0991 12.5697H11.5455C12.3354 12.5697 12.9672 11.9379 12.9672 11.1549Z" fill="#E1EAEA"/>
<path id="Vector_2" d="M14.2656 10.7286C14.2656 7.78214 16.5733 5.51559 19.5198 5.51559C22.2602 5.51559 24.4031 7.63789 24.4031 10.3371C24.4031 10.6874 24.3825 11.1613 24.3207 11.5528H17.0884C17.3563 12.8508 18.2835 13.5514 19.6434 13.5514C20.55 13.5514 21.4772 13.1187 21.8275 12.5212L24.1146 13.9223C23.3729 15.2616 21.6833 16.0446 19.5816 16.0446C16.6145 16.0446 14.2656 13.7368 14.2656 10.7286ZM21.4772 9.57474C21.333 8.60629 20.447 7.92634 19.3756 7.92634C18.1805 7.92634 17.4181 8.52389 17.109 9.57474H21.4772Z" fill="#E1EAEA"/>
<path id="Vector_3" d="M25.0967 14.6022L26.1887 12.4388C26.9511 13.1393 28.517 13.6338 29.6503 13.6338C30.3508 13.6338 30.8454 13.3248 30.8454 12.9127C30.8454 11.594 25.5294 12.6036 25.5294 8.87419C25.5294 6.89614 27.2189 5.51559 29.6503 5.51559C31.0514 5.51559 32.5761 5.86589 33.5858 6.66949L32.5143 8.91539C31.6283 8.25604 30.083 7.92634 29.3412 7.92634C28.7849 7.92634 28.414 8.19424 28.414 8.6063C28.414 9.822 33.7712 9.18325 33.7712 12.8096C33.7712 14.6847 32.0816 16.0652 29.7121 16.0652C27.9813 16.0652 26.1475 15.4882 25.0967 14.6022Z" fill="#E1EAEA"/>
<path id="Vector_4" d="M38.3594 2.57171C38.3594 3.54012 37.5558 4.3437 36.5874 4.3437C35.619 4.3437 34.8154 3.54012 34.8154 2.57171C34.8154 1.62389 35.619 0.820312 36.5874 0.820312C37.5558 0.820312 38.3594 1.62389 38.3594 2.57171ZM38.0297 5.7242V15.8411H35.1245V5.7242H38.0297Z" fill="#E1EAEA"/>
<path id="Vector_5" d="M39.9393 18.3935L41.361 16.3742C42.2676 17.0748 43.4009 17.3839 44.596 17.3839C45.8322 17.3839 47.254 16.4979 47.254 15.1174V14.1283C46.5534 15.1586 45.482 15.7355 44.0602 15.7355C41.4229 15.7355 39.3418 13.4278 39.3418 10.6049C39.3418 7.78214 41.4229 5.51559 44.0602 5.51559C45.482 5.51559 46.5534 6.09254 47.254 7.10219V5.70104H50.1592V15.1174C50.1592 18.1668 47.6454 20.0006 44.596 20.0006C42.927 20.0006 40.9283 19.4031 39.9393 18.3935ZM47.254 10.6049C47.254 9.24504 46.1413 8.19424 44.7196 8.19424C43.3185 8.19424 42.1852 9.26564 42.1852 10.6049C42.1852 11.9648 43.3185 13.0363 44.7196 13.0363C46.1413 13.0363 47.254 11.9854 47.254 10.6049Z" fill="#E1EAEA"/>
<path id="Vector_6" d="M54.952 7.04034C55.591 6.07194 56.5385 5.51559 57.6925 5.51559C60.289 5.51559 61.8545 7.24639 61.8545 10.1104V15.8385H58.9495V10.4813C58.9495 9.16264 58.146 8.29724 56.951 8.29724C55.735 8.29724 54.952 9.16264 54.952 10.4813V15.8385H52.047V5.72164H54.952V7.04034Z" fill="#E1EAEA"/>
<path id="Vector_7" d="M66.6279 15.8381H63.7224V0H66.6279V15.8381Z" fill="#E1EAEA"/>
<path id="Vector_8" d="M78.8605 15.8385H75.955V14.3962C75.2545 15.447 74.183 16.0446 72.7615 16.0446C70.124 16.0446 68.043 13.675 68.043 10.7698C68.043 7.86454 70.124 5.51559 72.7615 5.51559C74.183 5.51559 75.2545 6.11314 75.955 7.16399V5.72164H78.8605V15.8385ZM75.955 10.7698C75.955 9.36869 74.8425 8.27664 73.421 8.27664C72.0195 8.27664 70.8865 9.38929 70.8865 10.7698C70.8865 12.1709 72.0195 13.2629 73.421 13.2629C74.8425 13.2629 75.955 12.1915 75.955 10.7698Z" fill="#E1EAEA"/>
<path id="Vector_9" d="M83.6555 0V7.16355C84.356 6.1127 85.4275 5.51515 86.849 5.51515C89.4865 5.51515 91.5675 7.8641 91.5675 10.7694C91.5675 13.6746 89.4865 16.0441 86.849 16.0441C85.4275 16.0441 84.356 15.4466 83.6555 14.3958V15.8381H80.75V0H83.6555ZM88.724 10.7694C88.724 9.38885 87.591 8.2762 86.1895 8.2762C84.768 8.2762 83.6555 9.36825 83.6555 10.7694C83.6555 12.191 84.768 13.2625 86.1895 13.2625C87.591 13.2625 88.724 12.1705 88.724 10.7694Z" fill="#E1EAEA"/>
</g>
<defs>
<clipPath id="clip0_508_809">
<rect width="91.5" height="20" fill="white" transform="translate(0.398438)"/>
</clipPath>
</defs>
</svg>
