<svg width="214" height="20" viewBox="0 0 214 20" fill="none" xmlns="http://www.w3.org/2000/svg">
<g id="JNJ_BIG" clip-path="url(#clip0_508_835)">
<path id="Layer" fill-rule="evenodd" clip-rule="evenodd" d="M28.3287 12.6622C28.3287 16.5406 25.9774 19.7162 21.7206 19.7162C17.4639 19.7162 15.1125 16.5406 15.1125 12.6622C15.1125 8.77028 17.4639 5.59461 21.7206 5.59461C25.9774 5.59461 28.3287 8.77028 28.3287 12.6622ZM24.9639 12.6622C24.9639 9.04055 23.8017 7.09461 21.7206 7.09461C19.6396 7.09461 18.4639 9.06758 18.4639 12.6622C18.4639 16.2433 19.6396 18.2162 21.7206 18.2162C23.8017 18.2162 24.9639 16.2703 24.9639 12.6622ZM55.545 10.1351V19.446H52.3423V10.1622C52.3423 8.55407 51.6936 7.50001 50.045 7.50001C48.3963 7.50001 47.3693 8.66217 47.3693 10.6757V19.446H44.1666V5.86488H47.3693V7.58109H47.5314C48.1531 6.47298 49.2612 5.59461 51.2612 5.59461C54.072 5.59461 55.545 7.33785 55.545 10.1351ZM62.8017 5.60812C65.8017 5.60812 67.6666 6.93244 68.0044 8.83785L65.2882 9.64866C65.1531 7.93244 64.1531 7.04055 62.5314 7.04055C61.1531 7.04055 60.2206 7.6892 60.2206 8.7838C60.2206 9.64866 60.8017 10.2433 62.099 10.5676L64.6936 11.2162C66.5314 11.6892 68.3017 12.7433 68.3017 15.2973C68.3017 18.0135 66.3152 19.7162 62.6666 19.7162C59.3828 19.7162 57.2206 18.2838 57.0585 15.946L59.9233 15.1351C60.2206 17.3919 61.1666 18.2838 63.0179 18.2838C64.7206 18.2838 65.6936 17.4865 65.6936 16.1081C65.6936 14.973 65.045 14.446 63.6125 14.0946L60.9098 13.4189C59.1666 12.9865 57.626 11.7568 57.626 9.51353C57.626 6.83785 59.8423 5.59461 62.8017 5.59461V5.60812ZM82.8287 12.6757C82.8287 16.5541 80.4774 19.7297 76.2206 19.7297C71.9774 19.7297 69.626 16.5541 69.626 12.6757C69.626 8.7838 71.9774 5.60812 76.2206 5.60812C80.4774 5.60812 82.8287 8.7838 82.8287 12.6757ZM79.4774 12.6757C79.4774 9.05407 78.3152 7.10812 76.2206 7.10812C74.1395 7.10812 72.9774 9.08109 72.9774 12.6757C72.9774 16.2568 74.1395 18.2297 76.2206 18.2297C78.3152 18.2297 79.4774 16.2838 79.4774 12.6757ZM96.099 10.1487V19.4595H92.9098V10.1757C92.9098 8.56758 92.2612 7.51352 90.599 7.51352C88.9504 7.51352 87.9233 8.67569 87.9233 10.6892V19.4595H84.7341V5.87839H87.9233V7.59461H88.0855C88.7071 6.4865 89.8152 5.60812 91.8287 5.60812C94.6395 5.60812 96.099 7.35136 96.099 10.1487ZM145.896 12.6757C145.896 16.5541 143.545 19.7297 139.288 19.7297C135.045 19.7297 132.68 16.5541 132.68 12.6757C132.68 8.7838 135.045 5.60812 139.288 5.60812C143.545 5.60812 145.896 8.7838 145.896 12.6757ZM142.545 12.6757C142.545 9.05407 141.383 7.10812 139.288 7.10812C137.207 7.10812 136.045 9.08109 136.045 12.6757C136.045 16.2568 137.207 18.2297 139.288 18.2297C141.383 18.2297 142.545 16.2838 142.545 12.6757ZM173.113 10.1487V19.4595H169.923V10.1757C169.923 8.56758 169.261 7.51352 167.613 7.51352C165.964 7.51352 164.937 8.67569 164.937 10.6892V19.4595H161.734V5.87839H164.937V7.59461H165.099C165.721 6.4865 166.829 5.60812 168.829 5.60812C171.653 5.60812 173.113 7.35136 173.113 10.1487ZM180.369 5.62163C183.369 5.62163 185.248 6.94596 185.572 8.85136L182.856 9.66217C182.721 7.94596 181.721 7.05407 180.099 7.05407C178.721 7.05407 177.802 7.70271 177.802 8.79731C177.802 9.66217 178.369 10.2568 179.667 10.5811L182.261 11.2297C184.113 11.7027 185.869 12.7568 185.869 15.3108C185.869 18.027 183.896 19.7297 180.234 19.7297C176.964 19.7297 174.788 18.2973 174.626 15.9595L177.504 15.1487C177.802 17.4054 178.748 18.2973 180.585 18.2973C182.288 18.2973 183.275 17.5 183.275 16.1216C183.275 14.9865 182.613 14.4595 181.18 14.1081L178.477 13.4324C176.748 13 175.194 11.7703 175.194 9.52704C175.194 6.85136 177.423 5.60812 180.369 5.60812V5.62163ZM200.41 12.6892C200.41 16.5676 198.045 19.7433 193.802 19.7433C189.545 19.7433 187.194 16.5676 187.194 12.6892C187.194 8.79731 189.545 5.62163 193.802 5.62163C198.045 5.62163 200.41 8.79731 200.41 12.6892ZM197.045 12.6892C197.045 9.06758 195.883 7.12163 193.802 7.12163C191.707 7.12163 190.545 9.09461 190.545 12.6892C190.545 16.2703 191.707 18.2433 193.802 18.2433C195.883 18.2433 197.045 16.2973 197.045 12.6892ZM213.667 10.1622V19.473H210.477V10.1892C210.477 8.58109 209.829 7.52704 208.18 7.52704C206.531 7.52704 205.491 8.6892 205.491 10.7027V19.473H202.302V5.8919H205.491V7.60812H205.653C206.288 6.50001 207.396 5.62163 209.396 5.62163C212.207 5.62163 213.667 7.36488 213.667 10.1622ZM13.2206 13.6081C13.2206 17.1622 11.4504 19.8784 6.93686 19.8784C2.40983 19.8784 0.653076 17.1622 0.653076 13.6081V12.446L4.00443 11.5946V14.2027C4.00443 16.6757 4.88281 18.1216 6.93686 18.1216C8.99091 18.1216 9.85578 16.7703 9.85578 14.4865V0.445957H13.2206V13.6081ZM33.4233 7.58109H33.5855C34.2071 6.47298 35.3152 5.60812 37.3152 5.60812C40.126 5.60812 41.599 7.33785 41.599 10.1351V19.446H38.3963V10.1622C38.3963 8.56758 37.7477 7.50001 36.099 7.50001C34.4504 7.50001 33.4233 8.67569 33.4233 10.6757V19.446H30.2206V0.445957H33.4233V7.58109ZM130.788 13.6081C130.788 17.1622 129.031 19.8784 124.504 19.8784C119.991 19.8784 118.221 17.1622 118.221 13.6081V12.4324L121.585 11.5946V14.2027C121.585 16.6757 122.45 18.1081 124.504 18.1081C126.558 18.1081 127.437 16.7568 127.437 14.473V0.432444H130.788V13.6081ZM150.991 7.59461H151.153C151.775 6.4865 152.883 5.60812 154.883 5.60812C157.707 5.60812 159.167 7.35136 159.167 10.1487V19.4595H155.977V10.1757C155.977 8.56758 155.315 7.51352 153.667 7.51352C152.018 7.51352 150.991 8.67569 150.991 10.6892V19.4595H147.788V0.445957H150.991V7.59461ZM106.721 0.0270386C109.964 0.0270386 111.815 1.66217 111.815 3.71623C111.815 5.16217 110.937 6.1892 108.883 7.31082L108.937 7.41893C109.775 7.09461 111.058 6.75677 112.194 6.75677C114.356 6.75677 115.734 8.14866 115.734 10.2162C115.734 11.8649 114.896 13.7703 113.437 15.5135L116.896 19.3379V19.473H112.653L111.018 17.7027C109.018 19.1216 106.802 19.9054 104.896 19.9054C101.599 19.9054 99.4639 17.5676 99.4639 14.7703C99.4639 12.6622 100.68 10.5946 103.329 9.31082L103.302 9.25677C101.734 7.55407 101.14 6.13515 101.14 4.72974C101.14 2.12163 102.977 0.0270386 106.707 0.0270386H106.721ZM113.464 11.6757C113.464 9.47299 112.113 8.20271 109.923 8.20271C109.153 8.20271 108.234 8.33785 107.288 8.71623L112.599 14.5811C113.194 13.6622 113.464 12.6622 113.464 11.6757ZM109.18 4.08109C109.18 2.3919 108.207 1.47298 106.64 1.47298C105.072 1.47298 104.072 2.36488 104.072 3.93244C104.072 4.78379 104.356 5.4865 105.396 6.62163L106.558 7.93244C108.423 7.09461 109.18 5.62163 109.18 4.08109ZM110.221 16.8108L104.099 10.0946C103.072 10.8378 102.45 12.1351 102.45 13.5541C102.45 15.7973 104.045 17.9189 106.64 17.9189C107.802 17.9189 109.072 17.4865 110.221 16.8108Z" fill="#E1EAEA"/>
</g>
<defs>
<clipPath id="clip0_508_835">
<rect width="213.108" height="20" fill="white" transform="translate(0.653076)"/>
</clipPath>
</defs>
</svg>
