<svg width="88" height="20" viewBox="0 0 88 20" fill="none" xmlns="http://www.w3.org/2000/svg">
<g id="KVUE_BIG" clip-path="url(#clip0_508_820)">
<g id="Layer">
<path id="Layer_2" d="M0.898438 0.260864V19.7283H8.93648V10V0.260864H0.898438ZM18.4582 10L20.8006 6.50543C21.3876 5.63043 21.6756 4.83695 21.6756 3.84782C21.6756 1.80434 20.0343 0.0108643 17.7082 0.0108643C16.0941 0.0108643 14.9256 0.777169 13.9256 2.33152L8.94192 10L13.9256 17.6739C14.9256 19.2283 16.0941 19.9891 17.7082 19.9891C20.0343 19.9891 21.6756 18.2011 21.6756 16.1576C21.6756 15.1685 21.3876 14.375 20.8006 13.5L18.4582 10Z" fill="#E1EAEA"/>
<path id="Layer_3" fill-rule="evenodd" clip-rule="evenodd" d="M47.1865 9.87499C47.1865 10.2011 47.1593 10.4402 47.1213 10.6902H39.7082C39.9854 11.9837 40.9474 12.8098 42.4528 12.8098C43.518 12.8098 44.2191 12.4185 44.643 11.7826H46.9745C46.2354 13.4511 44.5941 14.6902 42.4148 14.6902C39.5071 14.6902 37.5941 12.5217 37.5941 9.90216C37.5941 7.34238 39.6213 5.08694 42.4256 5.08694C45.4202 5.08694 47.1865 7.44564 47.1865 9.87499ZM39.7191 9.02173H45.0669C44.8169 7.77173 43.9311 6.94564 42.4148 6.94564C41.0126 6.94564 40.0234 7.76086 39.7191 9.02173ZM33.5995 9.71195L37.893 14.4619V14.5761H35.1376L30.8821 9.77716L35.0995 5.21194H37.6811V5.32608L33.5995 9.71195ZM30.8821 5.20107V14.5761H28.7517V5.21194L30.8821 5.20107ZM87.1648 10.6902H79.7517C80.0235 11.9837 80.9908 12.8098 82.4908 12.8098C83.5561 12.8098 84.2571 12.4239 84.6865 11.7826H87.0126C86.2735 13.4511 84.6321 14.6902 82.4528 14.6902C79.5506 14.6902 77.6321 12.5217 77.6321 9.90216C77.6321 7.34781 79.6648 5.08694 82.4691 5.08694C85.4745 5.08694 87.2408 7.44564 87.2408 9.86412C87.2408 10.1902 87.2137 10.4293 87.1648 10.6902ZM79.7735 9.02716H85.1213C84.8821 7.77173 83.9854 6.94564 82.4691 6.94564C81.0669 6.94564 80.0778 7.76086 79.7735 9.02716ZM74.1756 5.20107H76.3061V10.6522C76.3061 12.8206 74.605 14.6793 71.9745 14.6793C69.393 14.6793 67.7626 12.9348 67.7626 10.6522V5.20107H69.893V10.5272C69.893 11.8098 70.6811 12.6956 72.0234 12.6956C73.3767 12.6956 74.1756 11.8098 74.1756 10.5272V5.20107ZM57.0832 9.16303V14.5652H54.9528V9.28803C54.9528 7.97281 54.1648 7.08151 52.7843 7.08151C51.4093 7.08151 50.605 7.97281 50.605 9.28803V14.5652H48.48V9.16303C48.48 6.98368 50.268 5.09238 52.8387 5.09238C55.5398 5.09238 57.0941 6.89673 57.0832 9.16303ZM64.7571 5.20107H66.9528L62.143 14.7772H62.0398L57.2191 5.20107H59.5017L62.1267 10.6033L64.7571 5.20107Z" fill="#E1EAEA"/>
</g>
</g>
<defs>
<clipPath id="clip0_508_820">
<rect width="86.3587" height="20" fill="white" transform="translate(0.898438)"/>
</clipPath>
</defs>
</svg>
