<svg width="20" height="20" viewBox="0 0 20 20" fill="none" xmlns="http://www.w3.org/2000/svg">
<g id="logo">
<g id="bottom">
<g id="Vector">
<path d="M0.730655 5.80444C2.50659 5.80444 4.26513 6.15424 5.90587 6.83386C7.54662 7.51348 9.03744 8.50961 10.2932 9.76539C11.549 11.0212 12.5451 12.512 13.2247 14.1527C13.9044 15.7935 14.2506 17.552 14.2506 19.3279H13.0802C13.0802 19.2024 13.0783 19.077 13.0745 18.9517C13.029 17.4582 12.7128 15.9843 12.1402 14.602C11.5196 13.1036 10.6099 11.7422 9.46313 10.5955C8.31637 9.4487 6.95496 8.53904 5.45664 7.91841C4.08962 7.35217 2.63307 7.03665 1.1566 6.9857C1.01478 6.98081 0.87278 6.97835 0.730655 6.97835V5.80733V5.80444Z" fill="#E1EAEA"/>
<path d="M14.2506 19.3279H13.0802C13.0802 19.2024 13.0783 19.077 13.0745 18.9517H1.1566V6.9857C1.01478 6.98081 0.87278 6.97835 0.730655 6.97835V5.80733H0.108154V19.9474V20.0001H14.2506V19.3279Z" fill="#E1EAEA"/>
</g>
<g id="Vector_2">
<path d="M18.7759 5.80469C17 5.80469 15.2415 6.15448 13.6007 6.8341C11.96 7.51372 10.4692 8.50986 9.21338 9.76563C7.95761 11.0214 6.96147 12.5122 6.28185 14.153C5.60224 15.7937 5.25603 17.5523 5.25604 19.3282H6.42635C6.42635 19.2027 6.42827 19.0772 6.43209 18.9519C6.47761 17.4584 6.79382 15.9845 7.36641 14.6022C7.98703 13.1039 8.89669 11.7425 10.0435 10.5957C11.1902 9.44894 12.5516 8.53928 14.05 7.91865C15.417 7.35242 16.8735 7.0369 18.35 6.98594C18.4918 6.98105 18.6338 6.9786 18.7759 6.9786V5.80758V5.80469Z" fill="#E1EAEA"/>
<path d="M5.25604 19.3282H6.42635C6.42635 19.2027 6.42827 19.0772 6.43209 18.9519H18.35V6.98594C18.4918 6.98105 18.6338 6.9786 18.7759 6.9786V5.80758H19.3984V19.9477V20.0003H5.25604V19.3282Z" fill="#E1EAEA"/>
</g>
</g>
<path id="dot" d="M12.9686 3.19633C12.9686 4.96162 11.5375 6.39266 9.77226 6.39266C8.00697 6.39266 6.57593 4.96162 6.57593 3.19633C6.57593 1.43105 8.00697 0 9.77226 0C11.5375 0 12.9686 1.43105 12.9686 3.19633ZM7.55334 3.19633C7.55334 4.42181 8.54678 5.41525 9.77226 5.41525C10.9977 5.41525 11.9912 4.42181 11.9912 3.19633C11.9912 1.97086 10.9977 0.977412 9.77226 0.977412C8.54678 0.977412 7.55334 1.97086 7.55334 3.19633Z" fill="#E1EAEA"/>
</g>
</svg>
